<svg width="23" height="21" viewBox="0 0 23 21" fill="none" xmlns="http://www.w3.org/2000/svg">
<path d="M9.36663 18.379C9.36644 18.7499 9.2563 19.1123 9.05012 19.4206C8.84394 19.7288 8.55099 19.969 8.20831 20.1107C7.86563 20.2525 7.48861 20.2894 7.12493 20.2169C6.76125 20.1444 6.42725 19.9656 6.16515 19.7033C5.90306 19.4409 5.72464 19.1068 5.65248 18.743C5.58031 18.3793 5.61762 18.0023 5.7597 17.6597C5.90178 17.3172 6.14225 17.0245 6.45069 16.8186C6.75914 16.6127 7.1217 16.5029 7.49254 16.5031C7.98982 16.5034 8.46664 16.7011 8.8181 17.0529C9.16956 17.4047 9.36687 17.8818 9.36663 18.379ZM17.2425 16.5079C16.8717 16.5077 16.5091 16.6175 16.2007 16.8234C15.8922 17.0292 15.6518 17.322 15.5097 17.6645C15.3676 18.007 15.3303 18.384 15.4025 18.7478C15.4746 19.1115 15.6531 19.4457 15.9152 19.7081C16.1772 19.9704 16.5113 20.1491 16.8749 20.2217C17.2386 20.2942 17.6156 20.2573 17.9583 20.1155C18.301 19.9738 18.5939 19.7336 18.8001 19.4253C19.0063 19.1171 19.1164 18.7546 19.1166 18.3838C19.1169 17.8865 18.9196 17.4095 18.5681 17.0577C18.2166 16.7059 17.7398 16.5081 17.2425 16.5079ZM22.0734 5.21618L19.5109 13.5306C19.3473 14.0682 19.0146 14.5388 18.5624 14.8725C18.1101 15.2062 17.5623 15.3851 17.0003 15.3828L7.76778 15.3782C7.19769 15.3761 6.64365 15.1893 6.18866 14.8458C5.73367 14.5023 5.40224 14.0207 5.24402 13.473L2.0442 2.25045L1.12451 2.25C0.826142 2.24985 0.540052 2.13119 0.329176 1.92011C0.118301 1.70903 -8.54376e-05 1.42282 6.04147e-05 1.12445C0.000206267 0.826082 0.118873 0.539992 0.329954 0.329117C0.541036 0.118241 0.827242 -0.000145232 1.12561 6.20399e-07L2.32748 0.000588136C2.73468 0.00204516 3.13043 0.135495 3.45535 0.380919C3.78028 0.626342 4.01687 0.970507 4.12963 1.36178L4.8119 3.7518L20.9988 3.75972C21.1748 3.75979 21.3484 3.80118 21.5056 3.88057C21.6627 3.95996 21.799 4.07512 21.9036 4.2168C22.0081 4.35847 22.0779 4.5227 22.1074 4.69628C22.1369 4.86986 22.1252 5.04793 22.0734 5.21618ZM19.4742 6.00897L5.45299 6.00212L7.40808 12.8562C7.43046 12.9346 7.47779 13.0036 7.5429 13.0527C7.60801 13.1018 7.68734 13.1283 7.76888 13.1282L17.0014 13.1328C17.0816 13.133 17.1599 13.1074 17.2245 13.0598C17.2892 13.0123 17.3369 12.9452 17.3606 12.8686L19.4742 6.00897Z" fill="black"/>
</svg>
